<svg xmlns="http://www.w3.org/2000/svg" xmlns:xlink="http://www.w3.org/1999/xlink" width="1080" zoomAndPan="magnify" viewBox="0 0 810 809.999993" height="1080" preserveAspectRatio="xMidYMid meet" version="1.0"><defs><linearGradient x1="0.0758519" gradientTransform="matrix(1439.999988, 0, 0, 809.999993, -218.453575, 0.00002)" y1="0.0758519" x2="0.857102" gradientUnits="userSpaceOnUse" y2="0.857102" id="e693d23434"><stop stop-opacity="1" stop-color="rgb(21.159363%, 21.588135%, 21.91925%)" offset="0"/><stop stop-opacity="1" stop-color="rgb(21.063232%, 21.495056%, 21.821594%)" offset="0.015625"/><stop stop-opacity="1" stop-color="rgb(20.872498%, 21.308899%, 21.624756%)" offset="0.03125"/><stop stop-opacity="1" stop-color="rgb(20.680237%, 21.121216%, 21.427917%)" offset="0.046875"/><stop stop-opacity="1" stop-color="rgb(20.489502%, 20.935059%, 21.232605%)" offset="0.0625"/><stop stop-opacity="1" stop-color="rgb(20.298767%, 20.747375%, 21.035767%)" offset="0.078125"/><stop stop-opacity="1" stop-color="rgb(20.106506%, 20.561218%, 20.838928%)" offset="0.09375"/><stop stop-opacity="1" stop-color="rgb(19.915771%, 20.375061%, 20.643616%)" offset="0.109375"/><stop stop-opacity="1" stop-color="rgb(19.723511%, 20.187378%, 20.446777%)" offset="0.125"/><stop stop-opacity="1" stop-color="rgb(19.532776%, 20.001221%, 20.249939%)" offset="0.140625"/><stop stop-opacity="1" stop-color="rgb(19.340515%, 19.813538%, 20.054626%)" offset="0.15625"/><stop stop-opacity="1" stop-color="rgb(19.14978%, 19.62738%, 19.857788%)" offset="0.171875"/><stop stop-opacity="1" stop-color="rgb(18.95752%, 19.441223%, 19.662476%)" offset="0.1875"/><stop stop-opacity="1" stop-color="rgb(18.766785%, 19.25354%, 19.465637%)" offset="0.203125"/><stop stop-opacity="1" stop-color="rgb(18.57605%, 19.067383%, 19.268799%)" offset="0.21875"/><stop stop-opacity="1" stop-color="rgb(18.383789%, 18.8797%, 19.073486%)" offset="0.234375"/><stop stop-opacity="1" stop-color="rgb(18.193054%, 18.693542%, 18.876648%)" offset="0.25"/><stop stop-opacity="1" stop-color="rgb(18.000793%, 18.507385%, 18.67981%)" offset="0.265625"/><stop stop-opacity="1" stop-color="rgb(17.810059%, 18.319702%, 18.484497%)" offset="0.28125"/><stop stop-opacity="1" stop-color="rgb(17.617798%, 18.133545%, 18.287659%)" offset="0.296875"/><stop stop-opacity="1" stop-color="rgb(17.427063%, 17.945862%, 18.09082%)" offset="0.3125"/><stop stop-opacity="1" stop-color="rgb(17.236328%, 17.759705%, 17.895508%)" offset="0.328125"/><stop stop-opacity="1" stop-color="rgb(17.044067%, 17.573547%, 17.698669%)" offset="0.34375"/><stop stop-opacity="1" stop-color="rgb(16.853333%, 17.385864%, 17.501831%)" offset="0.359375"/><stop stop-opacity="1" stop-color="rgb(16.661072%, 17.199707%, 17.306519%)" offset="0.36"/><stop stop-opacity="1" stop-color="rgb(16.566467%, 17.106628%, 17.208862%)" offset="0.375"/><stop stop-opacity="1" stop-color="rgb(16.470337%, 17.012024%, 17.10968%)" offset="0.390625"/><stop stop-opacity="1" stop-color="rgb(16.278076%, 16.825867%, 16.914368%)" offset="0.40625"/><stop stop-opacity="1" stop-color="rgb(16.087341%, 16.639709%, 16.717529%)" offset="0.421875"/><stop stop-opacity="1" stop-color="rgb(15.895081%, 16.452026%, 16.520691%)" offset="0.4375"/><stop stop-opacity="1" stop-color="rgb(15.704346%, 16.265869%, 16.325378%)" offset="0.453125"/><stop stop-opacity="1" stop-color="rgb(15.513611%, 16.078186%, 16.12854%)" offset="0.46875"/><stop stop-opacity="1" stop-color="rgb(15.32135%, 15.892029%, 15.931702%)" offset="0.484375"/><stop stop-opacity="1" stop-color="rgb(15.130615%, 15.705872%, 15.736389%)" offset="0.5"/><stop stop-opacity="1" stop-color="rgb(14.938354%, 15.518188%, 15.539551%)" offset="0.515625"/><stop stop-opacity="1" stop-color="rgb(14.74762%, 15.332031%, 15.342712%)" offset="0.53125"/><stop stop-opacity="1" stop-color="rgb(14.555359%, 15.144348%, 15.1474%)" offset="0.546875"/><stop stop-opacity="1" stop-color="rgb(14.364624%, 14.958191%, 14.950562%)" offset="0.5625"/><stop stop-opacity="1" stop-color="rgb(14.172363%, 14.772034%, 14.755249%)" offset="0.578125"/><stop stop-opacity="1" stop-color="rgb(13.981628%, 14.584351%, 14.558411%)" offset="0.59375"/><stop stop-opacity="1" stop-color="rgb(13.790894%, 14.398193%, 14.361572%)" offset="0.609375"/><stop stop-opacity="1" stop-color="rgb(13.598633%, 14.21051%, 14.16626%)" offset="0.625"/><stop stop-opacity="1" stop-color="rgb(13.407898%, 14.024353%, 13.969421%)" offset="0.64"/><stop stop-opacity="1" stop-color="rgb(13.311768%, 13.931274%, 13.871765%)" offset="0.640625"/><stop stop-opacity="1" stop-color="rgb(13.215637%, 13.838196%, 13.772583%)" offset="0.65625"/><stop stop-opacity="1" stop-color="rgb(13.024902%, 13.650513%, 13.577271%)" offset="0.671875"/><stop stop-opacity="1" stop-color="rgb(12.832642%, 13.464355%, 13.380432%)" offset="0.6875"/><stop stop-opacity="1" stop-color="rgb(12.641907%, 13.276672%, 13.183594%)" offset="0.703125"/><stop stop-opacity="1" stop-color="rgb(12.451172%, 13.090515%, 12.988281%)" offset="0.71875"/><stop stop-opacity="1" stop-color="rgb(12.258911%, 12.904358%, 12.791443%)" offset="0.734375"/><stop stop-opacity="1" stop-color="rgb(12.068176%, 12.716675%, 12.594604%)" offset="0.75"/><stop stop-opacity="1" stop-color="rgb(11.875916%, 12.530518%, 12.399292%)" offset="0.765625"/><stop stop-opacity="1" stop-color="rgb(11.685181%, 12.342834%, 12.202454%)" offset="0.78125"/><stop stop-opacity="1" stop-color="rgb(11.49292%, 12.156677%, 12.007141%)" offset="0.796875"/><stop stop-opacity="1" stop-color="rgb(11.302185%, 11.97052%, 11.810303%)" offset="0.8125"/><stop stop-opacity="1" stop-color="rgb(11.109924%, 11.782837%, 11.613464%)" offset="0.828125"/><stop stop-opacity="1" stop-color="rgb(10.919189%, 11.59668%, 11.418152%)" offset="0.84375"/><stop stop-opacity="1" stop-color="rgb(10.728455%, 11.408997%, 11.221313%)" offset="0.859375"/><stop stop-opacity="1" stop-color="rgb(10.536194%, 11.222839%, 11.024475%)" offset="0.875"/><stop stop-opacity="1" stop-color="rgb(10.345459%, 11.036682%, 10.829163%)" offset="0.890625"/><stop stop-opacity="1" stop-color="rgb(10.153198%, 10.848999%, 10.632324%)" offset="0.90625"/><stop stop-opacity="1" stop-color="rgb(9.962463%, 10.662842%, 10.435486%)" offset="0.921875"/><stop stop-opacity="1" stop-color="rgb(9.770203%, 10.475159%, 10.240173%)" offset="0.9375"/><stop stop-opacity="1" stop-color="rgb(9.579468%, 10.289001%, 10.043335%)" offset="0.953125"/><stop stop-opacity="1" stop-color="rgb(9.387207%, 10.102844%, 9.848022%)" offset="0.96875"/><stop stop-opacity="1" stop-color="rgb(9.196472%, 9.915161%, 9.651184%)" offset="0.984375"/><stop stop-opacity="1" stop-color="rgb(9.005737%, 9.729004%, 9.454346%)" offset="1"/></linearGradient></defs><rect x="-81" width="972" fill="#ffffff" y="-80.999999" height="971.999992" fill-opacity="1"/><rect x="-81" width="972" fill="#ffffff" y="-80.999999" height="971.999992" fill-opacity="1"/><rect x="-81" fill="url(#e693d23434)" width="972" y="-80.999999" height="971.999992"/><path fill="#f8d041" d="M 628.992188 188.828125 C 628.992188 188.828125 658.417969 211.449219 700.597656 214.851562 C 705.359375 215.191406 707.738281 220.632812 704.679688 224.375 C 691.242188 240.703125 655.695312 271.148438 590.554688 247.167969 C 590.554688 247.167969 612.324219 275.058594 637.328125 287.984375 C 641.410156 290.195312 641.410156 295.980469 637.328125 298.191406 C 615.726562 309.757812 563.851562 329.824219 529.496094 281.523438 C 529.496094 281.523438 491.058594 339.691406 427.621094 289.515625 L 427.621094 707.398438 C 427.621094 715.902344 422.6875 723.21875 415.542969 726.789062 C 412.484375 728.320312 409.082031 729 405.339844 729 C 393.605469 728.660156 384.421875 718.625 384.421875 706.71875 L 384.421875 289.347656 L 382.039062 289.347656 C 318.429688 339.691406 280.164062 281.351562 280.164062 281.351562 C 245.804688 329.484375 194.101562 309.414062 172.332031 298.019531 C 168.25 295.808594 168.25 289.855469 172.332031 287.816406 C 197.503906 274.890625 219.105469 246.996094 219.105469 246.996094 C 154.132812 270.976562 118.585938 240.535156 105.152344 224.375 C 102.089844 220.804688 104.472656 215.363281 109.234375 214.851562 C 151.414062 211.449219 180.835938 188.828125 180.835938 188.828125 C 107.703125 194.953125 87.804688 151.582031 82.53125 131.855469 C 81.339844 127.601562 85.082031 123.691406 89.332031 124.710938 C 117.738281 130.832031 152.601562 130.324219 189.511719 126.410156 C 207.539062 124.539062 225.90625 121.820312 244.445312 118.585938 C 327.785156 103.960938 333.226562 224.546875 382.210938 224.546875 L 384.589844 224.546875 L 384.589844 184.066406 C 364.011719 175.054688 350.234375 153.285156 352.957031 128.621094 C 355.847656 103.960938 375.917969 84.230469 400.578125 81.851562 C 408.402344 81 416.054688 82.019531 423.027344 84.230469 C 444.289062 91.375 459.765625 111.445312 459.765625 135.085938 C 459.765625 157.023438 446.667969 175.734375 427.789062 184.066406 L 427.789062 224.546875 C 476.773438 224.546875 482.046875 104.128906 565.554688 118.585938 C 622.019531 128.453125 678.488281 133.722656 720.667969 124.710938 C 724.917969 123.859375 728.660156 127.773438 727.46875 131.855469 C 722.027344 151.414062 702.128906 194.953125 628.992188 188.828125 Z M 628.992188 188.828125 " fill-opacity="1" fill-rule="nonzero"/><path fill="#17f771" d="M 588.34375 350.40625 C 588.34375 252.4375 509.257812 242.914062 479.664062 258.902344 C 474.390625 261.792969 470.820312 265.367188 469.460938 269.445312 C 460.445312 296.488281 473.882812 338.5 523.542969 344.453125 C 523.542969 344.453125 555.519531 389.691406 406.191406 417.074219 C 256.863281 389.863281 288.835938 344.453125 288.835938 344.453125 C 338.328125 338.5 351.933594 296.488281 342.921875 269.449219 C 342.242188 267.234375 340.878906 265.195312 338.839844 263.324219 C 316.898438 242.066406 224.035156 244.105469 224.035156 350.40625 C 224.035156 400.578125 261.453125 427.28125 308.566406 444.457031 C 261.285156 468.097656 251.078125 501.09375 260.09375 534.941406 C 265.367188 554.839844 291.386719 582.050781 346.152344 602.292969 C 333.566406 610.796875 324.722656 621 322 634.097656 C 316.390625 660.628906 329.484375 679.507812 340.539062 690.050781 C 343.429688 692.773438 348.023438 690.050781 347.003906 686.140625 C 347.003906 685.96875 346.832031 685.800781 346.832031 685.460938 C 341.050781 661.988281 358.570312 637.667969 406.359375 620.488281 C 454.832031 637.835938 472.179688 662.5 465.71875 686.140625 C 464.699219 689.882812 469.460938 692.601562 472.179688 689.882812 C 483.234375 679.335938 496.332031 660.457031 490.71875 633.925781 C 488 621 478.984375 610.796875 466.570312 602.121094 C 521.332031 582.050781 547.355469 554.667969 552.628906 534.769531 C 561.640625 500.753906 551.4375 467.929688 504.15625 444.289062 C 551.097656 427.449219 588.34375 400.75 588.34375 350.40625 Z M 500.242188 517.082031 C 500.242188 547.015625 452.453125 560.113281 406.019531 575.757812 C 359.757812 560.113281 311.796875 547.015625 311.796875 517.082031 C 311.796875 490.890625 354.316406 480.515625 406.019531 469.460938 C 457.722656 480.515625 500.242188 490.71875 500.242188 517.082031 Z M 500.242188 517.082031 " fill-opacity="1" fill-rule="nonzero"/><path fill="#45e4fd" d="M 466.226562 602.292969 C 455.683594 606.203125 443.949219 609.773438 431.191406 613.007812 C 422.007812 615.386719 413.675781 617.9375 406.019531 620.660156 C 398.367188 617.9375 390.03125 615.386719 380.847656 613.007812 C 368.09375 609.773438 356.359375 606.203125 345.8125 602.292969 C 361.800781 591.40625 383.738281 583.242188 406.019531 575.589844 C 428.300781 583.242188 450.242188 591.40625 466.226562 602.292969 Z M 417.246094 418.945312 C 413.332031 418.265625 409.761719 417.585938 406.191406 417.074219 C 402.617188 417.757812 398.878906 418.4375 395.136719 418.945312 C 357.886719 425.070312 329.65625 433.914062 308.566406 444.457031 C 339.519531 455.683594 374.554688 462.65625 406.191406 469.460938 C 437.824219 462.65625 473.03125 455.683594 503.816406 444.457031 C 482.894531 433.914062 454.492188 425.238281 417.246094 418.945312 Z M 417.246094 418.945312 " fill-opacity="1" fill-rule="nonzero"/><path fill="#394761" d="M 285.773438 295.46875 C 281.691406 295.46875 277.953125 292.917969 276.421875 289.175781 C 274.890625 285.265625 276.082031 280.84375 279.3125 278.121094 C 282.542969 275.230469 287.476562 275.058594 291.046875 277.269531 C 294.449219 279.480469 296.320312 283.5625 295.46875 287.644531 C 294.617188 292.066406 290.535156 295.46875 285.773438 295.46875 Z M 533.75 287.644531 C 534.601562 283.5625 532.898438 279.3125 529.328125 277.101562 C 525.757812 274.890625 520.992188 275.058594 517.761719 277.78125 C 514.53125 280.332031 513.339844 284.925781 514.699219 288.835938 C 516.0625 292.75 519.972656 295.46875 524.054688 295.46875 C 528.648438 295.46875 532.730469 292.066406 533.75 287.644531 Z M 533.75 287.644531 " fill-opacity="1" fill-rule="nonzero"/></svg>